<svg id="svgcontent" width="955" height="626" x="0" y="0" overflow="visible" xmlns="http://www.w3.org/2000/svg" xmlns:se="http://imprintnext.com" xmlns:xlink="http://www.w3.org/1999/xlink" viewBox="0 0 955 626"><!-- Made with luv in USA by ImprintNext - https://imprintnext.com--><defs><clipPath id="bound_0" xe_id="bound_0"><rect id="xe_c3qok9" x="139.12000000000006" y="71.30000000000001" pointer-events="all" width="676.7599999999999" height="483.4"></rect></clipPath></defs><g id="bounds" display="none"><path d="M139.12000000000006 71.30000000000001 L815.8799999999999 71.30000000000001 L815.8799999999999 554.7 L139.12000000000006 554.7  Z" x="139.12000000000006" y="71.30000000000001" width="676.7599999999999" height="483.4" aWidth="7" aHeight="5" fill="none" stroke="#006400" isBleed="0" safeVal="0" cropVal="0" stroke-miterlimit="null" stroke-width="1" pointer-events="all" id="bound_0" xe_id="bound_0"></path></g><g class="layer" id="Layer_0" xe_id="Layer_0" style="pointer-events:all" clip-path="url(#bound_0)"><title>Layer_0</title><g id="background" type="bg_area_0" pointer-events="none" style="color-interpolation-filters:sRGB;pointer-events: none;"></g><g id="xe_dkw2mu" type="image" style="pointer-events: bounding-box;" pointer-events="bounding-box" xe-props="&amp;#35;&amp;#103;&amp;#76;&amp;#73;&amp;#65;&amp;#101;&amp;#122;&amp;#127;&amp;#26;&amp;#89;&amp;#92;&amp;#97;&amp;#63;&amp;#32;&amp;#26;&amp;#28;&amp;#19;&amp;#111;&amp;#58;&amp;#47;&amp;#93;&amp;#83;&amp;#69;&amp;#84;&amp;#49;&amp;#49;&amp;#84;&amp;#85;&amp;#19;&amp;#58;&amp;#122;&amp;#103;&amp;#20;&amp;#18;&amp;#88;&amp;#115;&amp;#12;&amp;#32;&amp;#85;&amp;#64;&amp;#93;&amp;#97;&amp;#44;&amp;#32;&amp;#113;&amp;#93;&amp;#86;&amp;#34;&amp;#98;&amp;#35;&amp;#89;&amp;#92;&amp;#66;&amp;#101;&amp;#116;&amp;#103;&amp;#91;&amp;#95;&amp;#95;&amp;#116;&amp;#61;&amp;#43;&amp;#76;&amp;#100;&amp;#72;&amp;#112;&amp;#61;&amp;#103;&amp;#2;&amp;#18;&amp;#88;&amp;#109;&amp;#57;&amp;#34;&amp;#93;&amp;#31;&amp;#66;&amp;#118;&amp;#63;&amp;#110;&amp;#64;&amp;#93;&amp;#93;&amp;#34;&amp;#116;&amp;#103;&amp;#81;&amp;#93;&amp;#86;&amp;#69;&amp;#32;&amp;#49;&amp;#93;&amp;#94;&amp;#66;&amp;#105;&amp;#55;&amp;#43;&amp;#26;&amp;#10;&amp;#19;&amp;#115;&amp;#46;&amp;#34;&amp;#26;&amp;#28;&amp;#19;&amp;#111;&amp;#54;&amp;#32;&amp;#123;&amp;#95;&amp;#93;&amp;#111;&amp;#42;&amp;#3;&amp;#81;&amp;#92;&amp;#93;&amp;#34;&amp;#98;&amp;#103;&amp;#27;&amp;#118;&amp;#119;&amp;#48;&amp;#104;&amp;#117;&amp;#8;&amp;#18;&amp;#29;&amp;#34;&amp;#49;&amp;#40;&amp;#95;&amp;#100;&amp;#72;&amp;#112;&amp;#61;&amp;#103;&amp;#2;&amp;#18;&amp;#66;&amp;#118;&amp;#63;&amp;#103;&amp;#20;&amp;#18;&amp;#88;&amp;#109;&amp;#63;&amp;#22;&amp;#93;&amp;#92;&amp;#84;&amp;#99;&amp;#44;&amp;#44;&amp;#87;&amp;#94;&amp;#101;&amp;#121;&amp;#40;&amp;#32;&amp;#26;&amp;#10;&amp;#19;&amp;#117;&amp;#40;&amp;#41;&amp;#87;&amp;#81;&amp;#85;&amp;#34;&amp;#116;&amp;#103;&amp;#84;&amp;#95;&amp;#82;&amp;#107;&amp;#122;&amp;#127;&amp;#67;&amp;#18;&amp;#82;&amp;#111;&amp;#52;&amp;#42;&amp;#74;&amp;#117;&amp;#85;&amp;#105;&amp;#44;&amp;#103;&amp;#2;&amp;#86;&amp;#80;&amp;#108;&amp;#43;&amp;#32;&amp;#20;&amp;#18;&amp;#85;&amp;#101;&amp;#52;&amp;#32;&amp;#76;&amp;#85;&amp;#19;&amp;#58;&amp;#62;&amp;#36;&amp;#84;&amp;#67;&amp;#84;&amp;#44;&amp;#122;&amp;#40;&amp;#87;&amp;#70;&amp;#84;&amp;#34;&amp;#98;&amp;#35;&amp;#89;&amp;#92;&amp;#66;&amp;#101;&amp;#116;&amp;#103;&amp;#74;&amp;#95;&amp;#69;&amp;#97;&amp;#44;&amp;#32;&amp;#26;&amp;#10;&amp;#87;&amp;#97;&amp;#52;&amp;#54;&amp;#93;&amp;#28;&amp;#19;&amp;#114;&amp;#61;&amp;#54;&amp;#81;&amp;#74;&amp;#84;&amp;#34;&amp;#98;&amp;#35;&amp;#89;&amp;#92;&amp;#66;&amp;#101;&amp;#116;&amp;#103;&amp;#93;&amp;#84;&amp;#88;&amp;#116;&amp;#122;&amp;#127;&amp;#94;&amp;#81;&amp;#93;&amp;#115;&amp;#61;&amp;#56;&amp;#20;&amp;#18;&amp;#82;&amp;#111;&amp;#52;&amp;#42;&amp;#74;&amp;#67;&amp;#19;&amp;#58;&amp;#3;&amp;#103;&amp;#27;&amp;#3;&amp;#6;&amp;#51;&amp;#97;&amp;#35;&amp;#94;&amp;#18;&amp;#29;&amp;#34;&amp;#123;&amp;#112;&amp;#8;&amp;#6;&amp;#83;&amp;#102;&amp;#62;&amp;#103;&amp;#20;&amp;#18;&amp;#18;&amp;#50;&amp;#58;&amp;#118;&amp;#13;&amp;#84;&amp;#6;&amp;#34;&amp;#116;&amp;#103;&amp;#27;&amp;#1;&amp;#87;&amp;#53;&amp;#96;&amp;#35;&amp;#94;&amp;#18;&amp;#29;&amp;#34;&amp;#123;&amp;#3;&amp;#126;&amp;#118;&amp;#119;&amp;#70;&amp;#30;&amp;#103;&amp;#20;&amp;#18;&amp;#18;&amp;#99;&amp;#107;&amp;#32;&amp;#11;&amp;#86;&amp;#80;&amp;#34;&amp;#5;&amp;#105;&amp;#26;&amp;#89;&amp;#92;&amp;#97;&amp;#63;&amp;#32;&amp;#111;&amp;#81;&amp;#67;&amp;#110;&amp;#49;&amp;#43;&amp;#95;&amp;#18;&amp;#11;&amp;#102;&amp;#57;&amp;#41;&amp;#75;&amp;#85;&amp;#29;&amp;#34;&amp;#45;&amp;#53;&amp;#84;&amp;#95;&amp;#80;&amp;#100;&amp;#61;&amp;#33;&amp;#113;&amp;#93;&amp;#86;&amp;#34;&amp;#98;&amp;#103;&amp;#80;&amp;#68;&amp;#69;&amp;#112;&amp;#43;&amp;#127;&amp;#23;&amp;#31;&amp;#88;&amp;#109;&amp;#40;&amp;#55;&amp;#81;&amp;#94;&amp;#69;&amp;#110;&amp;#61;&amp;#61;&amp;#76;&amp;#30;&amp;#88;&amp;#111;&amp;#119;&amp;#61;&amp;#93;&amp;#68;&amp;#94;&amp;#111;&amp;#52;&amp;#106;&amp;#89;&amp;#67;&amp;#66;&amp;#101;&amp;#44;&amp;#54;&amp;#23;&amp;#82;&amp;#67;&amp;#111;&amp;#47;&amp;#54;&amp;#93;&amp;#66;&amp;#110;&amp;#105;&amp;#53;&amp;#36;&amp;#95;&amp;#85;&amp;#66;&amp;#47;&amp;#106;&amp;#117;&amp;#10;&amp;#2;&amp;#0;&amp;#50;&amp;#104;&amp;#114;&amp;#8;&amp;#1;&amp;#2;&amp;#54;&amp;#105;&amp;#125;&amp;#9;&amp;#4;&amp;#5;&amp;#46;&amp;#43;&amp;#51;&amp;#95;&amp;#18;&amp;#76;"><g id="xe_53v0by" style="pointer-events: bounding-box;"><circle cx="361.2506597200803" cy="236.79886176415732" r="256" fill="#3739ff" id="xe_t0t0ir" transform="matrix(1.3218 0 0 1.3218 0 0)" oldFill="#3739ff"></circle><circle cx="361.2506597200803" cy="236.79886176415732" r="173.71400451660156" fill="#506bff" id="xe_nckbqi" transform="matrix(1.3218 0 0 1.3218 0 0)" oldFill="#506bff"></circle><path d="M296.2248085560799,313 C296.2248085560799,153.17228495931624 407.0680524992943,19.31787888717652 556.0517458209991,-16.11420865535736 C530.833182878971,-22.112522960662844 504.553217031002,-25.3800048828125 477.5,-25.3800048828125 C290.6177461314201,-25.3800048828125 139.1199951171875,126.11774613142012 139.1199951171875,313 C139.1199951171875,499.88093207168583 290.6177461314201,651.3800048828125 477.5,651.3800048828125 C504.55586062479017,651.3800048828125 530.833182878971,648.1125229606629 556.0530676178932,642.1155304522514 C407.0680524992943,606.6807993159294 296.2248085560799,472.8250714468956 296.2248085560799,313 z" fill="#2b35d7" id="xe_c6y0gt" oldFill="#2b35d7"></path><path d="M359.6922082219124,509.8221665120125 C319.87572038173676,454.3516380553246 296.2248085560799,386.50248168563843 296.2248085560799,313 S319.87572038173676,171.64836194467546 359.69088642501833,116.17783348798753 C292.7987110066414,156.30758719205858 247.8853743429184,229.3157168393135 247.8853743429184,313 S292.7987110066414,469.6924128079415 359.6922082219124,509.8221665120125 z" fill="#1f58ff" id="xe_hniqgv" oldFill="#1f58ff"></path><path d="M708.199820907116,166.89385851669311 C703.4796841983795,162.1737218079567 695.8304455723763,162.1737218079567 691.1103088636398,166.89385851669311 L622.1217635712624,235.87711662149428 C617.0645686545372,240.93431153821945 608.8628189268112,240.93431153821945 603.805624010086,235.87711662149428 L602.1097585949898,234.18125120639803 C597.0525636782646,229.12405628967286 597.0525636782646,220.92230656194687 602.1097585949898,215.86511164522173 L670.8894599781037,147.08541026210787 C675.6095966868401,142.36527355337142 675.6095966868401,134.71735672426223 670.8894599781037,129.9972200155258 C666.1693232693673,125.2770833067894 658.5200846433639,125.2770833067894 653.7999479346275,129.9972200155258 L585.0202465515137,198.7769213986397 C579.9630516347885,203.83411631536484 571.7613019070625,203.83411631536484 566.7041069903373,198.7769213986397 L566.7041069903373,198.7769213986397 C561.6469120736122,193.7197264819145 561.6469120736122,185.51797675418854 566.7041069903373,180.4607818374634 L635.6900086889267,111.47620193576813 C640.4101453976632,106.75606522703171 640.4101453976632,99.1081483979225 635.6900086889267,94.3880116891861 C630.9698719801903,89.66787498044968 623.3206333541871,89.66787498044968 618.6004966454507,94.3880116891861 L544.898423628807,168.08347572135926 C533.4635586981774,179.51305346441268 526.71182016325,194.0647154712677 526.3694747676849,208.14581778383254 L526.0073024187088,239.63234159755706 C525.9689703087806,242.96326977062228 524.5572912259101,246.12897333192825 522.106679784298,248.3852806301117 L294.24740040254596,458.0672091245651 C280.83512731838226,471.47948220872877 280.83512731838226,493.2270065069199 294.24740040254596,506.63927959108355 S329.4071977849007,520.0515526752472 342.81947086906433,506.63927959108355 L552.1379052176476,279.18050466823576 C554.447084391594,276.6704123663902 557.7119227199555,275.25344609594345 561.1248023004532,275.27856023693084 L593.428196594715,275.52970164680477 C593.6753726139068,275.52970164680477 593.911974257946,275.53631063127517 594.1591502771378,275.53631063127517 C608.4517400927543,275.53631063127517 623.1210420231819,269.0568622565269 634.4977478904725,257.6867653737068 L708.199820907116,183.9846923570633 C712.9199576158524,179.2632338514328 712.9199576158524,171.61399522542953 708.199820907116,166.89385851669311 z" fill="#FFFFFF" id="xe_mmmho3" oldFill="#FFFFFF"></path><path d="M495.58482510471345,272.7869730916023 L399.274738011837,361.41477663612363 L420.8147401976585,382.9547788219452 C427.4263682618141,389.56640688610076 435.58053330135346,393.97195593404774 444.40484936618805,396.24809018564224 L528.0997069020272,305.29921129512786 L495.58482510471345,272.7869730916023 z" fill="#c3e3fa" id="xe_t3npeo" oldFill="#c3e3fa"></path><path d="M312.02556862783433,123.40938429546355 L647.674741127491,459.05855679512024 C661.0870142116546,472.4708298792839 661.0870142116546,494.218354177475 647.674741127491,507.63062726163867 L647.674741127491,507.63062726163867 C634.2624680433273,521.0429003458023 612.5149437451362,521.0429003458023 599.1026706609725,507.63062726163867 L517.60992675066,426.13788335132597 C509.26410116147997,417.792057762146 507.4082983222008,405.4121080522537 512.0464836235046,395.27392587471013 C514.4891642837524,389.9338664226532 514.087338027954,383.7557877397537 509.9342521867752,379.6027018985748 L496.1954952697754,365.86394498157506 C490.8303216767311,360.4987713885307 482.1315763168335,360.4987713885307 476.7664027237892,365.86394498157506 L476.7664027237892,365.86394498157506 C466.03605553770063,376.5942921676636 448.63856481790543,376.5942921676636 437.90821763181685,365.86394498157506 L345.16698215293883,273.122709502697 C276.315903737545,204.27163108730315 282.80989187812804,151.85577525281906 292.32022053098683,127.30207614850997 C295.42908682584766,119.27612540769576 305.94001572751995,117.32250959825515 312.02556862783433,123.40938429546355 z" fill="#FFFFFF" id="xe_f90zj3" oldFill="#FFFFFF"></path><g id="xe_u57v6p" transform="matrix(1.3218 0 0 1.3218 0 0)"></g><g id="xe_wa7m41" transform="matrix(1.3218 0 0 1.3218 0 0)"></g><g id="xe_0hxi8w" transform="matrix(1.3218 0 0 1.3218 0 0)"></g><g id="xe_mvu3a0" transform="matrix(1.3218 0 0 1.3218 0 0)"></g><g id="xe_imxcqp" transform="matrix(1.3218 0 0 1.3218 0 0)"></g><g id="xe_cc9xp7" transform="matrix(1.3218 0 0 1.3218 0 0)"></g><g id="xe_jevz1y" transform="matrix(1.3218 0 0 1.3218 0 0)"></g><g id="xe_o35w1t" transform="matrix(1.3218 0 0 1.3218 0 0)"></g><g id="xe_wx0hkx" transform="matrix(1.3218 0 0 1.3218 0 0)"></g><g id="xe_cnw4io" transform="matrix(1.3218 0 0 1.3218 0 0)"></g><g id="xe_nxh79m" transform="matrix(1.3218 0 0 1.3218 0 0)"></g><g id="xe_hgrjlc" transform="matrix(1.3218 0 0 1.3218 0 0)"></g><g id="xe_zialco" transform="matrix(1.3218 0 0 1.3218 0 0)"></g><g id="xe_ysmupe" transform="matrix(1.3218 0 0 1.3218 0 0)"></g><g id="xe_qbkofn" transform="matrix(1.3218 0 0 1.3218 0 0)"></g></g></g></g><g id="borderG" clip-path="url(#bound_0)" display="none"><rect id="border" x="139.12000000000006" y="71.30000000000001" width="676.7599999999999" height="483.4" aWidth="7" aHeight="5" fill="none" stroke-width="1" stroke="#000" pointer-events="none"></rect></g></svg>